Set in a bustling bird city on the edge of the majestic Victoria Falls, "Zambezia" is the story of Kai - a na╨┐ve, but high-spirited young falcon who travels to the bird city of "Zambezia" where he discovers the truth about his origins and, in defending the city, learns how to be part of a community.
 
http://www.imdb.com/title/tt1488181/



Format : AVI
 Format/Info : Audio Video Interleave
 File size : 1.36 GiB
 Duration : 1h 22mn
 Overall bit rate : 2 366 Kbps
 Writing application : VirtualDubMod 1.5.10.2 (build 2540/release)
 Writing library : VirtualDubMod build 2540/release
 
Video
 ID : 0
 Format : MPEG-4 Visual
 Format profile : Advanced Simple@L5
 Format settings, BVOP : 2
 Format settings, QPel : No
 Format settings, GMC : No warppoints
 Format settings, Matrix : Default (H.263)
 Muxing mode : Packed bitstream
 Codec ID : XVID
 Codec ID/Hint : XviD
 Duration : 1h 22mn
 Bit rate : 1 717 Kbps
 Width : 720 pixels
 Height : 384 pixels
 Display aspect ratio : 1.85:1
 Frame rate : 23.976 fps
 Color space : YUV
 Chroma subsampling : 4:2:0
 Bit depth : 8 bits
 Scan type : Progressive
 Compression mode : Lossy
 Bits/(Pixel*Frame) : 0.262
 Stream size : 1 012 MiB (73%)
 Writing library : XviD 64
 
Audio
 ID : 1
 Format : AC-3
 Format/Info : Audio Coding 3
 Mode extension : CM (complete main)
 Format settings, Endianness : Big
 Codec ID : 2000
 Duration : 1h 22mn
 Bit rate mode : Constant
 Bit rate : 640 Kbps
 Channel(s) : 6 channels
 Channel positions : Front: L C R, Side: L R, LFE
 Sampling rate : 48.0 KHz
 Bit depth : 16 bits
 Compression mode : Lossy
 Stream size : 377 MiB (27%)
 Alignment : Split accross interleaves
 Interleave, duration : 42 ms (1.00 video frame)
 Interleave, preload duration : 500 ms

Zambezia (2012) Blu-ray 1080p AVC DTS-HD 5.1...........Thanks